<svg width="350" height="66" viewBox="0 0 350 66" fill="none" xmlns="http://www.w3.org/2000/svg">
<path d="M93.3049 53.1557C90.4962 53.1557 87.9884 52.6375 85.7816 51.6009C83.5747 50.5309 81.8527 49.0597 80.6155 47.1872C79.4118 45.2813 78.8099 43.1246 78.8099 40.7171V29.4822C78.8099 27.0747 79.4118 24.9347 80.6155 23.0622C81.8527 21.1897 83.558 19.7352 85.7314 18.6987C87.9048 17.6621 90.3959 17.1438 93.2046 17.1438C96.0134 17.1438 98.5044 17.5952 100.678 18.498C102.851 19.3674 104.54 20.5879 105.744 22.1594C106.981 23.731 107.599 25.5366 107.599 27.5762C107.599 28.5794 107.265 29.3651 106.596 29.9336C105.928 30.502 105.041 30.7862 103.938 30.7862C103.704 30.7862 103.353 30.7528 102.885 30.6859C102.952 30.2847 102.985 29.6494 102.985 28.78C102.985 27.3422 102.567 26.0549 101.731 24.918C100.929 23.7811 99.775 22.895 98.2704 22.2597C96.7991 21.6244 95.1105 21.3068 93.2046 21.3068C91.3321 21.3068 89.6603 21.6579 88.189 22.36C86.7178 23.0288 85.5642 23.9985 84.7283 25.2691C83.9258 26.5063 83.5245 27.9106 83.5245 29.4822V40.7171C83.5245 42.3221 83.9258 43.7599 84.7283 45.0305C85.5642 46.2677 86.7178 47.2374 88.189 47.9395C89.6937 48.6417 91.399 48.9928 93.3049 48.9928C95.2443 48.9928 96.9663 48.6752 98.471 48.0398C99.9757 47.4045 101.146 46.5352 101.982 45.4317C102.818 44.2949 103.236 42.9908 103.236 41.5196C103.236 40.9846 103.202 40.3493 103.135 39.6137C103.604 39.5468 103.938 39.5133 104.139 39.5133C105.242 39.5133 106.128 39.831 106.797 40.4663C107.499 41.1016 107.85 41.9543 107.85 43.0243C107.85 44.9971 107.232 46.7525 105.994 48.2906C104.757 49.8287 103.035 51.0325 100.828 51.9019C98.6549 52.7378 96.1471 53.1557 93.3049 53.1557ZM124.482 31.037C122.609 31.037 121.054 31.6054 119.817 32.7423C118.58 33.8457 117.961 35.1999 117.961 36.8049V49.9458C117.961 51.0492 117.593 51.8684 116.858 52.4034C116.156 52.905 115.069 53.1557 113.598 53.1557V30.8865C113.598 28.4122 115.002 27.175 117.811 27.175V30.2345C117.276 30.8029 116.908 31.3045 116.707 31.7392L116.908 31.9398C119.048 28.7633 121.723 27.175 124.933 27.175C126.137 27.175 127.056 27.4759 127.691 28.0778C128.327 28.6462 128.644 29.3484 128.644 30.1844C128.644 30.7862 128.494 31.3212 128.193 31.7893C127.257 31.2878 126.02 31.037 124.482 31.037ZM134.129 63.1368C132.056 63.1368 130.969 61.933 130.869 59.5255C131.872 59.6593 132.591 59.7262 133.026 59.7262C134.497 59.7262 135.667 59.2915 136.537 58.4221C137.439 57.5527 138.359 56.0481 139.295 53.9081L140.298 51.6511L130.418 27.5261C130.652 27.4258 130.953 27.3422 131.32 27.2753C131.722 27.2084 132.056 27.175 132.323 27.175C133.026 27.2084 133.661 27.4091 134.229 27.7769C134.798 28.1112 135.199 28.5626 135.433 29.1311L142.154 46.2844L141.452 48.2906L141.753 48.4411L149.376 29.1311C149.611 28.5292 149.995 28.0611 150.53 27.7267C151.098 27.3589 151.734 27.175 152.436 27.175C152.737 27.175 153.071 27.2084 153.439 27.2753C153.84 27.3422 154.141 27.4258 154.342 27.5261L143.057 55.162C141.953 57.837 140.716 59.8265 139.345 61.1305C137.974 62.468 136.236 63.1368 134.129 63.1368ZM158.856 30.7361C158.856 29.6326 159.19 28.7633 159.859 28.128C160.561 27.4927 161.614 27.175 163.018 27.175V29.9837L162.015 31.2878L162.166 31.4884C163.202 30.1509 164.389 29.0976 165.727 28.3286C167.064 27.5595 168.653 27.175 170.492 27.175C173.367 27.175 175.691 27.9775 177.463 29.5825C179.236 31.154 180.122 33.2606 180.122 35.9021V44.4788C180.122 47.1203 179.202 49.2269 177.363 50.7984C175.524 52.37 173.133 53.1557 170.191 53.1557C168.619 53.1557 167.165 52.8381 165.827 52.2028C164.523 51.534 163.37 50.6647 162.366 49.5947L162.216 49.8455C162.45 50.1798 162.801 50.5476 163.269 50.9489V59.7763C163.269 62.0501 161.798 63.1869 158.856 63.1869V30.7361ZM169.539 49.2937C171.512 49.2937 173.05 48.8591 174.153 47.9897C175.257 47.0869 175.808 45.8497 175.808 44.2782V36.1027C175.808 34.4643 175.257 33.2104 174.153 32.3411C173.05 31.4717 171.495 31.037 169.489 31.037C167.716 31.037 166.228 31.5051 165.025 32.4414C163.821 33.3442 163.219 34.481 163.219 35.852V44.5289C163.219 45.8664 163.788 47.0033 164.924 47.9395C166.061 48.8423 167.599 49.2937 169.539 49.2937ZM195.335 53.1557C192.961 53.1557 191.189 52.487 190.018 51.1495C188.848 49.7786 188.263 47.9897 188.263 45.7828V31.1373H183.598C183.598 30.0005 183.849 29.1311 184.351 28.5292C184.852 27.9273 185.538 27.6264 186.407 27.6264H188.313V22.8616C188.313 21.7582 188.664 20.9557 189.366 20.4541C190.102 19.9191 191.189 19.6516 192.627 19.6516V27.6264H199.297C199.297 29.967 198.244 31.1373 196.137 31.1373H192.677V45.6324C192.677 46.9699 192.911 47.9228 193.379 48.4913C193.88 49.0262 194.766 49.2937 196.037 49.2937C197.207 49.2937 198.311 48.9928 199.347 48.3909C199.782 48.8256 199.999 49.4108 199.999 50.1464C199.999 50.9489 199.581 51.6511 198.746 52.2529C197.91 52.8548 196.773 53.1557 195.335 53.1557ZM213.545 53.1557C211.505 53.1557 209.65 52.7712 207.978 52.0022C206.339 51.2331 205.052 50.1966 204.116 48.8925C203.213 47.555 202.762 46.0671 202.762 44.4286V36.2031C202.762 34.5312 203.213 33.0098 204.116 31.6389C205.052 30.2679 206.339 29.1812 207.978 28.3787C209.616 27.5763 211.472 27.175 213.545 27.175C215.618 27.175 217.474 27.5763 219.112 28.3787C220.784 29.1812 222.072 30.2679 222.974 31.6389C223.911 33.0098 224.379 34.5312 224.379 36.2031V44.4286C224.379 46.0671 223.911 47.555 222.974 48.8925C222.038 50.1966 220.751 51.2331 219.112 52.0022C217.474 52.7712 215.618 53.1557 213.545 53.1557ZM213.545 49.3941C215.551 49.3941 217.14 48.9259 218.31 47.9897C219.514 47.02 220.115 45.7661 220.115 44.228V36.3535C220.115 34.7485 219.514 33.4445 218.31 32.4414C217.14 31.4383 215.551 30.9367 213.545 30.9367C211.572 30.9367 209.984 31.4383 208.78 32.4414C207.576 33.4445 206.975 34.7485 206.975 36.3535V44.228C206.975 45.7661 207.56 47.02 208.73 47.9897C209.934 48.9259 211.539 49.3941 213.545 49.3941Z" fill="white"/>
<path d="M240.152 23.4133H228.064C228.064 19.5346 229.82 17.5952 233.331 17.5952H258.96C258.96 21.474 257.188 23.4133 253.644 23.4133H246.873V48.1903C246.873 49.7953 246.304 51.0325 245.168 51.9019C244.031 52.7378 242.359 53.1557 240.152 53.1557V23.4133ZM270.134 32.5918C268.161 32.5918 266.556 33.1268 265.319 34.1968C264.082 35.2334 263.463 36.5374 263.463 38.109V49.3439C263.463 50.6814 262.962 51.6511 261.959 52.2529C260.956 52.8548 259.384 53.1557 257.244 53.1557V31.99C257.244 30.4519 257.729 29.2648 258.699 28.4289C259.702 27.593 261.206 27.175 263.213 27.175V30.1342C262.711 30.7026 262.31 31.2543 262.009 31.7893L262.31 31.99C264.416 28.78 267.058 27.175 270.234 27.175C271.672 27.175 272.759 27.5595 273.495 28.3286C274.23 29.0642 274.598 30.0005 274.598 31.1373C274.598 32.0067 274.364 32.7423 273.896 33.3442C272.993 32.8426 271.739 32.5918 270.134 32.5918ZM284.966 53.1557C283.261 53.1557 281.689 52.8214 280.252 52.1526C278.847 51.4839 277.71 50.5309 276.841 49.2937C276.005 48.0231 275.587 46.5185 275.587 44.7797C275.587 43.041 276.038 41.5363 276.941 40.2657C277.844 38.9616 279.065 37.9752 280.603 37.3065C282.174 36.6043 283.896 36.2532 285.769 36.2532C287.307 36.2532 288.678 36.504 289.881 37.0056C291.119 37.4737 292.256 38.1926 293.292 39.1623L293.543 38.9115C293.242 38.6105 292.724 38.1591 291.988 37.5573V36.5542C291.988 35.1832 291.503 34.0965 290.534 33.294C289.564 32.4915 288.21 32.0903 286.471 32.0903C283.361 32.0903 281.071 33.2271 279.6 35.5009C278.864 35.2668 278.245 34.899 277.744 34.3975C277.242 33.8625 276.991 33.294 276.991 32.6922C276.991 31.689 277.443 30.7695 278.346 29.9336C279.248 29.0976 280.469 28.4289 282.007 27.9273C283.545 27.4258 285.217 27.175 287.023 27.175C290.567 27.175 293.309 28.0109 295.248 29.6828C297.188 31.3212 298.157 33.5615 298.157 36.4037V48.9427C298.157 50.4139 297.689 51.4839 296.753 52.1526C295.817 52.8214 294.345 53.1557 292.339 53.1557V51.0994C292.908 50.5309 293.292 50.113 293.493 49.8455L293.292 49.5947C292.189 50.765 291.002 51.6511 289.731 52.2529C288.494 52.8548 286.906 53.1557 284.966 53.1557ZM286.571 48.5916C288.31 48.5916 289.664 48.2572 290.634 47.5884C291.604 46.9197 292.088 45.9667 292.088 44.7296C292.088 43.5258 291.587 42.5729 290.584 41.8707C289.614 41.1685 288.293 40.8174 286.621 40.8174C285.083 40.8174 283.863 41.1685 282.96 41.8707C282.091 42.5394 281.656 43.4924 281.656 44.7296C281.656 46.0002 282.091 46.9699 282.96 47.6386C283.829 48.2739 285.033 48.5916 286.571 48.5916ZM326.396 51.3501C326.095 51.9186 325.66 52.37 325.092 52.7043C324.523 53.0053 323.871 53.1557 323.136 53.1557C322.5 53.1557 321.932 53.0053 321.43 52.7043C320.929 52.4368 320.444 51.9854 319.976 51.3501L313.355 41.5697L309.945 44.7296V49.3439C309.945 50.6814 309.426 51.6511 308.39 52.2529C307.387 52.8548 305.849 53.1557 303.775 53.1557V21.9588C303.775 18.7488 305.865 17.1438 310.045 17.1438V37.8582L321.531 27.175C323.202 28.4791 324.038 29.549 324.038 30.385C324.038 30.92 323.888 31.3881 323.587 31.7893C323.32 32.1906 322.885 32.6587 322.283 33.1937L317.017 38.109L326.396 51.3501ZM343.997 32.5918C342.024 32.5918 340.419 33.1268 339.182 34.1968C337.944 35.2334 337.326 36.5374 337.326 38.109V49.3439C337.326 50.6814 336.824 51.6511 335.821 52.2529C334.818 52.8548 333.246 53.1557 331.106 53.1557V31.99C331.106 30.4519 331.591 29.2648 332.561 28.4289C333.564 27.593 335.069 27.175 337.075 27.175V30.1342C336.573 30.7026 336.172 31.2543 335.871 31.7893L336.172 31.99C338.279 28.78 340.92 27.175 344.097 27.175C345.535 27.175 346.621 27.5595 347.357 28.3286C348.093 29.0642 348.46 30.0005 348.46 31.1373C348.46 32.0067 348.226 32.7423 347.758 33.3442C346.855 32.8426 345.602 32.5918 343.997 32.5918Z" fill="#4A30F2"/>
<rect x="19.4424" y="13.8101" width="27.4957" height="27.4957" transform="rotate(45 19.4424 13.8101)" fill="#4A30F2"/>
<rect x="29.2615" y="14.9982" width="25.8154" height="25.8154" transform="rotate(45 29.2615 14.9982)" stroke="#E1DFEC" stroke-width="1.68026"/>
</svg>
